<svg xmlns="http://www.w3.org/2000/svg" width="256" height="256"><path fill="#1976D2" fill-opacity=".016" fill-rule="evenodd" d="M0 128.004v128.004l128.25-.254 128.25-.254.254-127.75L257.008 0H0zm.485.496c0 70.4.119 99.053.265 63.672s.146-92.98 0-128S.485 58.1.485 128.5"/><path fill="#1976D2" fill-opacity=".187" fill-rule="evenodd" d="M111 3.139C96.258 5.565 76.903 13.221 64.252 21.631 11.103 56.963-6.982 126.346 21.799 184.5c5.599 11.313 18.223 29.055 21.388 30.059 1.077.342 1.761 1.144 1.521 1.781-.24.638-1.215 3.86-2.165 7.16-.951 3.3-3.487 10.14-5.636 15.199-4.741 11.162-4.969 13.996-1.205 14.941 3.917.983 16.083-5.572 23.883-12.868l6.281-5.876 8.684 3.065c32.966 11.636 58.364 12.509 86.061 2.959 43.405-14.967 73.04-46.674 84.511-90.42 2.051-7.822 2.359-11.291 2.347-26.5-.013-15.826-.277-18.518-2.767-28.14-8.661-33.475-25.564-57.269-53.496-75.304-12.358-7.979-29.739-14.939-43.64-17.474-6.976-1.272-28.694-1.238-36.566.057m30.813 20.544c.721.289 1.584.253 1.916-.079s-.258-.568-1.312-.525c-1.165.048-1.402.285-.604.604m4.77 21.96c-.346.904-.507 1.691-.357 1.75 8.215 3.21 17.967 11.408 23.481 19.741 3.479 5.257 5.209 3.582 2.264-2.192-2.994-5.867-11.422-14.576-17.471-18.051-5.772-3.316-7.046-3.517-7.917-1.248m-10.054 33.712c-2.765 2.022-1.561 5.145 1.985 5.145 2.308 0 3.057-.496 3.297-2.182.415-2.915-2.846-4.744-5.282-2.963M174 88.932c0 1.279 6.107 5.527 7.98 5.55.836.01 1.37.693 1.187 1.518s.012 1.155.434.732c.422-.422 2.372.688 4.333 2.466s.344-.013-3.594-3.982c-6.443-6.494-10.34-8.862-10.34-6.284M123 101.5c1.292 1.375 2.574 2.5 2.849 2.5s-.557-1.125-1.849-2.5-2.574-2.5-2.849-2.5.557 1.125 1.849 2.5m-32.139 22.533c1.788 1.49 3.862 1.967 8.554 1.967 7.172 0 12.846 2.943 18.517 9.607l3.313 3.893-2.372-4.379c-4.638-8.557-13.162-13.149-24.301-13.088l-6.072.034z"/><path fill="#1976D2" fill-opacity=".25" fill-rule="evenodd" d="M105.5 4.657c-31.206 6.662-60.466 27.316-77.492 54.702-27.763 44.655-25.645 101.145 5.377 143.41 3.682 5.018 7.905 10.004 9.383 11.081l2.688 1.957-2.341 7.347c-1.287 4.04-4.089 11.486-6.227 16.545S33 249.606 33 250.47s1.08 2.065 2.4 2.666c3.881 1.769 16.504-5.276 26.785-14.948l3.685-3.467 12.315 4.058c19.357 6.378 26.949 7.653 45.315 7.609 17.924-.042 24.077-1.099 40.041-6.877 18.014-6.519 32.14-15.414 46.754-29.441 5.467-5.247 11.86-12.247 14.206-15.555 5.797-8.171 13.728-23.477 13.063-25.209-.339-.884-.113-1.145.605-.702.78.482.966.019.582-1.449-.362-1.383-.182-1.921.5-1.5s.861-.117.5-1.5c-.311-1.187-.204-1.935.237-1.662.85.525 2.06-1.86 1.942-3.825-.039-.642-.496-.268-1.016.832-.75 1.589-.829 1.383-.382-1 .31-1.65.79-3.9 1.067-5 .472-1.872.414-1.888-.907-.25-.777.963-1.605 1.75-1.839 1.75-1.091 0-.591-4.47.723-6.476 1.37-2.09 1.247-2.459-1.802-5.441l-3.272-3.199-1.239 4.308c-1.047 3.638-1.16 3.767-.73.825 2.86-19.539 2.611-30.844-1.025-46.608-4.483-19.432-15.708-38.707-31.144-53.478-29.838-28.552-72.826-36.702-110.615-20.97-11.448 4.765-22.882 12.324-33.006 21.818-5.084 4.768-8.152 7.443-6.819 5.945 2.405-2.702 1.714-3.873-.871-1.474-1.077 1-1.205 1-.641 0 .388-.688.319-1.25-.155-1.25-.473 0-.903-1.489-.954-3.31-.082-2.878.381-3.523 3.551-4.949 2.005-.901 2.873-1.661 1.927-1.69-2.082-.062-1.436-2.492 1.542-5.801 1.114-1.237 1.641-2.25 1.171-2.25-2.509 0 13.521-10.781 23.006-15.472C88.944 10.362 104.807 5 109.648 5c1.229 0 2.512-.45 2.852-1s.479-.963.309-.918-3.459.753-7.309 1.575m9.25-.995c.688.278 1.813.278 2.5 0 .688-.277.125-.504-1.25-.504s-1.937.227-1.25.504m28.063.021c.721.289 1.584.253 1.916-.079s-.258-.568-1.312-.525c-1.165.048-1.402.285-.604.604m11 2c.721.289 1.584.253 1.916-.079s-.258-.568-1.312-.525c-1.165.048-1.402.285-.604.604M184 17.393c0 .216.698.661 1.552.989.89.341 1.291.173.941-.393-.587-.951-2.493-1.406-2.493-.596m-72.367 6.098C72.913 31.53 41.811 61.352 31.319 100.5c-2.393 8.928-2.676 11.715-2.635 26 .039 13.957.378 17.258 2.648 25.851 1.432 5.418 4.05 12.989 5.818 16.824l3.215 6.975 2.222-9.825c4.536-20.051 10.712-33.99 20.307-45.832l4.497-5.551.131-14.221c.113-12.335.467-15.238 2.671-21.888 7.422-22.39 23.821-38.56 43.91-43.296 8.119-1.913 22.779-1.944 29.852-.062 22.201 5.909 39.975 26.35 40.033 46.041.011 3.786.673 4.676 11.512 15.484 6.325 6.307 11.5 11.995 11.5 12.64 0 1.487-12.68 6.755-20.266 8.42-4.476.982-5.66 1.62-5.293 2.853 1.846 6.205 2.748 16.603 2.162 24.94-1.493 21.239-12.249 40.698-30.76 55.65l-7.657 6.186 4.79-.461c6.299-.605 11.333 1.16 15.475 5.425l3.371 3.471 5.339-2.682c8.502-4.269 16.721-10.595 25.451-19.587 11.552-11.898 18.066-22.628 23.512-38.729 3.915-11.572 5.065-18.812 5.027-31.632-.138-46.335-30.941-86.917-74.867-98.635-10.166-2.712-31.76-3.421-41.651-1.368M197 25.378c0 .207.787.995 1.75 1.75 1.586 1.243 1.621 1.208.378-.378-1.307-1.666-2.128-2.195-2.128-1.372M51.924 33.75 49.5 36.5l2.75-2.424C54.82 31.81 55.459 31 54.674 31c-.179 0-1.416 1.237-2.75 2.75m160.034 4.5c2.452 2.612 4.59 4.75 4.75 4.75.751 0-.043-.898-4.458-5.042L207.5 33.5zm-94.736 3.22c-5.774 1.803-10.823 5.828-13.231 10.548-1.095 2.146-1.991 4.305-1.991 4.796 0 1.39 4.759 6.186 6.138 6.186.678 0 2.227.934 3.442 2.075 1.637 1.538 2.406 1.757 2.969.846.529-.856.333-.982-.644-.415-.819.475-1.062.44-.584-.083.451-.494 1.351-.931 2-.971.648-.041 2.979-.917 5.179-1.948 4.68-2.194 17.104-3.186 21.351-1.706 2.258.787 3.24.682 4.391-.469 2.068-2.068 8.84-2.787 13.075-1.389 3.283 1.083 5.64 3.298 12.933 12.152 2.323 2.82 2.75 3.025 2.75 1.32 0-3.811-5.361-12.773-11.034-18.446-9.215-9.215-21.233-13.988-34.966-13.887-4.125.03-9.425.656-11.778 1.391m-62.116 3.431C53.398 46.497 52 48.16 52 48.597s1.575-.731 3.5-2.597 3.5-3.529 3.5-3.696c0-.768-1.02-.088-3.894 2.597m71.836 22.047c-3.97 1.205-7.184 3.057-10.278 5.924-2.897 2.685-5.741 6.912-3.873 5.757.545-.337 1.282.949 1.642 2.865.552 2.94 1.035 3.445 3.132 3.271 1.54-.127 2.296-.685 1.994-1.473-.268-.697-.166-1.185.227-1.084s2.421-1.467 4.506-3.485c6.355-6.148 14.972-7.076 21.88-2.357 7.971 5.444 9.191 17.905 2.514 25.68-1.202 1.401-.785 1.137.926-.585 2.945-2.963 3.176-3.03 4.288-1.25.646 1.034 2.057 2.207 3.135 2.606 1.896.701 1.877.849-.573 4.454-1.394 2.051-2.299 3.729-2.012 3.729 1.28 0 5.669-7.999 4.99-9.097-.481-.779-.329-.953.426-.486 1.319.816 3.559-3.777 4.592-9.417.601-3.281.403-3.625-3.158-5.5-2.614-1.376-4.678-3.638-6.611-7.246-1.546-2.885-4.277-6.364-6.069-7.73-6.219-4.744-15.01-6.599-21.678-4.576m8.629 12.623c-1.886 1.886-1.952 2.648-.371 4.229 1.836 1.836 5.607 1.428 6.763-.731.78-1.457.648-2.315-.536-3.5-1.993-1.992-3.862-1.992-5.856.002M109.158 87c0 1.375.227 1.938.504 1.25.278-.687.278-1.812 0-2.5-.277-.687-.504-.125-.504 1.25m9.094 2.5c.011 2.2.216 2.982.455 1.738s.23-3.044-.02-4-.446.062-.435 2.262m55.926-1.442c-2.201.882-1.938 1.234 5 6.691 9.217 7.25 15.678 11.466 16.932 11.048.534-.178-1.227-2.001-3.914-4.05s-7.231-6.205-10.097-9.236c-2.867-3.031-5.299-5.482-5.406-5.448-.106.035-1.238.483-2.515.995M119 94.854c0 4.286 5.633 10.301 11.369 12.14 4.42 1.416 12.243.841 13.968-1.028.917-.994.74-1.103-.837-.515-8.415 3.138-16.792.312-21.613-7.291-1.588-2.503-2.887-3.991-2.887-3.306m57.813 6.829c.721.289 1.584.253 1.916-.079s-.258-.568-1.312-.525c-1.165.048-1.402.285-.604.604m8 7c.721.289 1.584.253 1.916-.079s-.258-.568-1.312-.525c-1.165.048-1.402.285-.604.604M186.5 110c-2.548 1.095.081 1.095 3.5 0 2.01-.644 2.108-.806.5-.83-1.1-.016-2.9.357-4 .83M88 122.839c0 1.381 4.847 3.161 8.604 3.161 9.921 0 19.876 6.261 24.229 15.238 1.137 2.344 2.09 3.563 2.117 2.708.101-3.145-5.243-12.034-9.475-15.759-2.396-2.109-6.123-4.364-8.282-5.011-4.496-1.347-17.193-1.596-17.193-.337m157.079 20.744c.048 1.165.285 1.402.604.605.289-.722.253-1.585-.079-1.917s-.568.258-.525 1.312m-1 5c.048 1.165.285 1.402.604.605.289-.722.253-1.585-.079-1.917s-.568.258-.525 1.312m-1 4c.048 1.165.285 1.402.604.605.289-.722.253-1.585-.079-1.917s-.568.258-.525 1.312"/><path fill="#1976D2" fill-opacity=".967" fill-rule="evenodd" d="M111.342 18.479C79.215 24.309 49.48 47.078 34.264 77.5c-15.95 31.891-15.869 65.49.242 99.239l5.365 11.238-1.135 8.987c-1.111 8.802-1.174 8.951-3.086 7.261-1.074-.949-.264.525 1.799 3.275s4.606 5.406 5.651 5.903 1.9 1.915 1.9 3.153c0 2.658-6.345 21.24-9.089 26.619-2.321 4.549-2.467 8.675-.336 9.492 4.891 1.877 16.758-5.529 30.238-18.872l9.687-9.589 8.5 3.333c6.296 2.469 10.135 3.35 14.805 3.397 4.152.042 7.872.778 10.897 2.156 3.196 1.456 5.535 1.89 7.695 1.427 3.49-.748 5.473-.761 14.23-.095 5.523.42 6.355.225 8.425-1.979 1.792-1.908 3.31-2.445 6.911-2.445 2.64 0 6.293-.856 8.537-2 2.158-1.1 4.84-2.002 5.961-2.004s3.614-.975 5.539-2.162 5.863-3.411 8.75-4.943c13.543-7.183 23.301-15.315 33.367-27.805 8.214-10.192 16.831-26.842 20.345-39.311 8.74-31.015 2.703-64.73-16.344-91.275-5.353-7.46-12.223-14.553-13.394-13.829-.568.351-.735.156-.371-.432 1.269-2.054-17.315-15.999-19.512-14.641-.69.426-.878.272-.472-.387 1.46-2.362-19.806-10.633-33.803-13.146-7.872-1.413-25.317-1.202-34.224.414M119.5 19c.34.55.816 1 1.059 1s.441-.45.441-1-.477-1-1.059-1-.781.45-.441 1m3.176.222c-.647.411 2.424.693 6.824.627 8.15-.124 7.843-.521-.824-1.07-2.654-.168-5.354.031-6 .443m-8.407 1.471c.973.254 2.323.237 3-.037s-.119-.481-1.769-.461-2.204.244-1.231.498m-1.109 1.864c-9.766 1.783-19.134 4.94-27.66 9.321-3.85 1.979-7.558 3.542-8.239 3.473s-1.027.219-.767.64-1.432 2.021-3.76 3.557c-2.329 1.535-7.112 5.528-10.631 8.872C26.987 81.799 17.8 128.04 37.477 172.374c1.434 3.231 2.776 5.706 2.981 5.5s1.579-5.774 3.052-12.374c4.537-20.32 10.617-33.972 20.111-45.159l4.379-5.16V102.25c0-21.915 5.235-36.148 18.403-50.028 10.997-11.592 26.74-18.16 43.637-18.205 19.913-.053 40.07 12.179 48.481 29.42 3.28 6.721 5.812 17.533 4.753 20.292-.275.716 4.848 6.686 11.569 13.482 8.73 8.827 11.787 12.53 11.063 13.403-.928 1.117-17.872 6.873-22.406 7.611-1.628.264-1.943.972-1.693 3.8.169 1.911.394 10.225.5 18.475.173 13.415-.056 15.74-2.163 22-5.903 17.539-17.617 31.371-34.288 40.488-4.938 2.7-5.041 2.843-2.878 4 1.234.661 4.106 1.008 6.383.772 6.39-.663 13.049 1.701 16.464 5.844l2.934 3.56 4.371-2.214c8.566-4.339 18.861-12.237 27.085-20.779 12.91-13.411 20.897-27.627 25.979-46.239 3.112-11.397 3.317-35.449.401-46.932-6.386-25.151-17.474-42.583-38.095-59.893-2.2-1.847-3.368-3.007-2.595-2.578.943.524 1.167.396.68-.391-.398-.644-1.096-.94-1.551-.659s-3.885-1.275-7.621-3.458c-18.671-10.911-43.258-15.298-64.253-11.464m75.239 15.953c.122.831.823 2.068 1.558 2.75 1.064.987 1.193.985.631-.01-.833-1.474 1.007-1.715 1.912-.25.34.55 1.129 1 1.753 1 .625 0-.389-1.125-2.253-2.5-3.992-2.945-3.884-2.916-3.601-.99M122.5 39.699c-1.65.219-5.25 1.114-8 1.989C98.861 46.663 87.05 56.761 80.219 71c-5.368 11.188-6.641 18.235-5.96 33.005l.546 11.864-5.895 6.815c-6.616 7.65-10.355 14.15-14.846 25.813-3.663 9.514-3.701 9.904-.814 8.406 3.803-1.973 10.75-7.966 10.75-9.274 0-2.435 6.019-10.67 9.229-12.627 4.637-2.828 5.246-2.491 2.353 1.302-4.777 6.262-7.237 15.555-4.556 17.212.564.349 3.473.886 6.464 1.195 6.239.644 11.066-.905 11.821-3.793.682-2.606 3.354-2.421 4.804.332 1.541 2.927 2.809 3.716 6 3.735 3.608.021 7.689-3.455 9.567-8.149 2.142-5.354 4.92-4.927 4.575.703-.648 10.56-12.434 24.873-27.575 33.488-4.173 2.374-7.375 4.66-7.116 5.079 1.222 1.979 19.61-3.337 26.703-7.719 2.327-1.438 6.374-4.689 8.993-7.225 13.948-13.504 10.66-37.335-6.438-46.671-5.043-2.753-5.984-2.911-17.824-2.984-17.479-.109-19.916-2.054-6.352-5.072 17.989-4.002 33.267 2.565 41.402 17.797 2.872 5.377 3.406 7.485 3.762 14.835.367 7.58.106 9.309-2.269 15-1.476 3.538-3.136 7.941-3.688 9.784-2.352 7.847-16.994 17.602-32.531 21.676-3.753.984-7.274 2.234-7.824 2.778-.662.655-.408.781.75.374.963-.339 1.75-.15 1.75.42 0 .601.892.753 2.125.361 1.343-.426 1.892-.297 1.492.351-1.023 1.655 12.398 4.191 22.08 4.172 12.014-.024 21.222-2.139 31.303-7.19 14.847-7.439 27.204-22.113 32.245-38.293 2.777-8.91 2.988-24.22.451-32.663-1.636-5.446-1.855-5.688-5.733-6.343-2.218-.375-5.29-1.74-6.827-3.033l-2.795-2.352-4.902 3.485c-17.016 12.097-40.221 6.538-49.403-11.837-2.533-5.07-3.036-7.262-3.036-13.239 0-9.562 2.172-15.451 8.086-21.922 6.436-7.042 12.99-9.957 22.414-9.971 11.08-.016 21.854 6.268 26.559 15.491 3.274 6.417 8.399 8.455 14.394 5.723 3.089-1.407 3.217-3.578.65-11.039-2.626-7.634-5.917-12.516-12.483-18.516-10.79-9.862-25.619-14.513-40.12-12.585m-.27 28.416c-9.03 4.47-14.982 15.307-13.942 25.384 1.82 17.637 19.209 28.627 36.905 23.325 7.892-2.364 16.109-11.908 19.294-22.408 1.957-6.451 2.023-6.176-1.863-7.8-3.478-1.453-4.712-2.837-9.562-10.719-5.624-9.141-20.5-12.896-30.832-7.782m7.272 7.403c-10.742 5.807-12.947 16.698-5.127 25.327 5.119 5.649 14.594 6.973 20.727 2.897C148.845 101.255 153 94.025 153 90c0-3.621-3.988-11.01-7.209-13.356-3.671-2.674-12.319-3.272-16.289-1.126M135.2 79.2c-2.983 2.983-.026 7.475 4.22 6.409 2.873-.721 4.26-4.085 2.54-6.157-1.461-1.761-5.115-1.897-6.76-.252m38.702 8.46c-1.384.371-5.596 11.979-4.679 12.896.562.562 28.134 6.42 28.499 6.055.199-.199-1.119-1.586-2.93-3.082-1.81-1.496-6.52-5.827-10.466-9.624s-7.546-6.853-8-6.789-1.545.309-2.424.544m-7.959 18.947c-1.3 2.428-1.204 2.771 1.387 5 3.287 2.828 4.925 2.911 15.313.783 9.638-1.974 11.858-2.991 8.343-3.82-4.185-.987-22.16-4.57-22.927-4.57-.397 0-1.349 1.173-2.116 2.607M62.405 158.233c-1.886 2.21-1.885 2.218.095.75 1.836-1.361 1.891-1.344.677.208-.728.929-1.919 1.462-2.646 1.182-.728-.279-1.973.42-2.767 1.553s-1.813 1.727-2.264 1.318-.478-.151-.059.574c.421.73 1.497 1.038 2.41.691 1.24-.472 1.366-.342.506.524-.837.844-1.688.86-3.184.06-2.914-1.56-3.011-1.492-3.756 2.657-.37 2.063-1.094 4.425-1.608 5.25-.921 1.477-.505-1.699.851-6.5.456-1.616.315-1.762-.734-.763-.827.787-1.281 3.694-1.248 8 .034 4.433-.231 6.074-.768 4.763-.624-1.522-.784-1.135-.669 1.619.145 3.5.235 3.582 2.705 2.472 9.794-4.4 23.34-12.707 29.951-18.37l3.396-2.909-8.342-.696c-8.091-.674-11.51-1.903-10.381-3.729 1.046-1.693-.271-.875-2.165 1.346m23.093 7.528c-3.85 3.707-8.8 8.224-11 10.039l-3.998 3.299 3-.571c4.961-.945 20.738-9.248 24.75-13.024 2.063-1.942 3.75-3.701 3.75-3.908s-1.463-.583-3.25-.834c-1.787-.252-3.925-.746-4.75-1.098q-1.5-.64-8.502 6.097M60 164.559c0 .857.457 1.276 1.016.931.559-.346.758-1.047.441-1.559-.857-1.387-1.457-1.129-1.457.628m-12.333 42.108c-.367.366-.653 1.379-.637 2.25.025 1.3.221 1.257 1.092-.242 1.077-1.852.765-3.228-.455-2.008m33.935 6.072c-1.483 3.024-2.506 5.69-2.273 5.923s1.955.672 3.827.976c2.911.472 3.602.183 4.767-1.995 1.434-2.678 5.634-4.643 9.926-4.643 4.075 0 1.33-1.608-6.449-3.779l-7.101-1.982zM108 209.513c0 .145 2.939 2.106 6.531 4.358 4.622 2.899 7.442 5.561 9.649 9.112 3.458 5.562 4.82 6.273 4.82 2.517 0-3.253 1.332-3.168 3.898.25 1.647 2.194 2.25 2.468 2.981 1.356 1.169-1.777-.369-6.334-2.916-8.639-1.316-1.192-2.821-1.545-4.849-1.14-1.921.384-3.346.099-4.112-.824-2.021-2.436-9.977-6.637-11.171-5.899-.652.403-.868.264-.504-.324.371-.601-.398-1.03-1.845-1.03-1.365 0-2.482.118-2.482.263m22.976 1.289c4.611 3.161 8.926 7.313 9.508 9.149.732 2.305 9.255 4.71 10.892 3.073 1.609-1.609-.328-4.177-4.939-6.548-2.166-1.112-6.131-3.25-8.813-4.75s-5.832-2.702-7-2.674c-2.035.051-2.02.124.352 1.75m-78.865 7.708c-1.226 3.845-2.46 7.665-2.742 8.49-.898 2.623 5.872-8.332 7.381-11.945 1.285-3.074 1.279-3.324-.054-2.218-1.202.998-1.587.991-1.929-.035-.234-.704-1.43 1.864-2.656 5.708m100.139-4.43c.963.561 2.398 2.273 3.191 3.805 1.204 2.33 1.941 2.713 4.5 2.337 1.682-.247 3.059-.808 3.059-1.247 0-1.939-6.33-5.973-9.327-5.945-2.64.026-2.879.202-1.423 1.05M70 215.979c-.825.521-1.556 1.414-1.625 1.985-.283 2.345-.448 2.47-1.375 1.036-.838-1.297-.971-1.275-.985.167-.008.916-.577 1.893-1.265 2.171-.961.388-.948.522.059.583.72.043 1.031.529.691 1.079s-.388 1-.107 1 1.904-2.025 3.607-4.5c3.288-4.779 3.353-5.009 1-3.521m23.944 3.865c-1.425 1.154-2.046 2.449-1.658 3.46.509 1.326 2.049 1.578 8.608 1.405 6.846-.179 8.639.145 12.538 2.265 4.215 2.292 4.669 2.354 6.188.834 1.52-1.519 1.446-1.833-1-4.279-3.847-3.847-8.707-5.529-15.977-5.529-4.751 0-7.014.48-8.699 1.844m-36.38 4.863c-.542 1.425-.428 1.54.56.56.684-.679.991-1.486.683-1.793-.308-.308-.867.247-1.243 1.233m2.124.906c-.997 1.336-2.183 2.199-2.636 1.919-.941-.581-11.446 13.407-10.659 14.194 1.242 1.242 16.797-13.411 17.208-16.211.123-.838-.149-1.295-.603-1.014-.455.282-.978.1-1.163-.402-.184-.503-1.15.179-2.147 1.514m1.184 2.137c-1.243 1.586-1.208 1.621.378.378 1.666-1.307 2.195-2.128 1.372-2.128-.207 0-.995.787-1.75 1.75"/></svg>