<svg xmlns="http://www.w3.org/2000/svg" width="256" height="256">
  <path fill="#1976D2" fill-opacity=".016" fill-rule="evenodd"
        d="M0 128.004v128.004l128.25-.254 128.25-.254.254-127.75L257.008 0H0zm.485.496c0 70.4.119 99.053.265 63.672s.146-92.98 0-128S.485 58.1.485 128.5"/>
  <path fill="#1976D2" fill-opacity=".211" fill-rule="evenodd"
        d="M129.16 30.6c-2.054 1.439-11.562 12.446-21.16 24.495-2.475 3.107-8.501 10.094-13.392 15.527C89.718 76.055 82.992 84.1 79.662 88.5S70.864 99.425 67.509 103c-6.617 7.052-22.103 24.773-27.147 31.065-1.726 2.153-5.787 6.957-9.025 10.675-8.071 9.269-12.52 14.954-15.843 20.246-1.549 2.467-5.332 6.829-8.405 9.693-3.975 3.704-5.28 5.518-4.52 6.283.724.729 13.447 1.084 39.5 1.103 21.137.015 46.029.437 55.314.937 18.861 1.015 21.408 1.913 27.301 9.623 6.635 8.682 8.732 10.487 12.822 11.036 5.724.767 7.147-1.245 8.807-12.454 1.456-9.839 3.478-13.524 7.132-13.001 1.8.258 2.13 1.225 2.66 7.794.332 4.125 1.368 11.1 2.3 15.5.933 4.4 2.358 11.15 3.168 15s1.88 7.649 2.378 8.443c1.573 2.507 5.451-.269 9.936-7.112 3.551-5.417 5.897-9.936 14.447-27.831 2.584-5.409 6.007-6.038 36.339-6.681 15.84-.335 28.365-1.014 29.077-1.576 2.355-1.861 1.244-4.548-4.505-10.892-3.165-3.493-6.837-7.926-8.162-9.851-1.324-1.925-7.191-8.45-13.038-14.5-10.247-10.602-12.839-14.001-27.045-35.46-3.575-5.401-7.348-11.008-8.385-12.461s-1.7-2.827-1.473-3.054 2.425.048 4.885.61c8.348 1.908 18.104-.49 23.368-5.745 5.029-5.019 6.599-8.454 6.579-14.39-.023-7.009-2.5-12.453-7.87-17.295C212.897 54.011 210.32 53 203.557 53c-6.557 0-11.38 1.942-16.652 6.705-8.546 7.721-10.434 17.915-4.927 26.599 1.638 2.583 2.563 4.696 2.056 4.696-1.872 0-6.095-4.787-14.117-16-13.324-18.623-33.404-43.12-36.864-44.971-1.204-.645-2.409-.468-3.893.571m-7.149 12.556c-5.218 5.611-10.685 11.809-12.148 13.773S102.848 65.225 97.525 71 85.764 84.425 83.218 88 74.5 99 69.503 104.5c-10.108 11.126-26.919 30.563-30.003 34.69-1.1 1.472-5.404 6.643-9.565 11.493-4.161 4.849-9.238 11.361-11.283 14.47s-5.678 7.46-8.075 9.669c-4.175 3.848-4.26 4.041-2.047 4.596 1.27.319 21.133.568 44.14.554 23.006-.015 46.429.363 52.049.839 9.395.795 10.664 1.16 15.728 4.522 3.464 2.301 6.249 5.111 7.508 7.578 2.258 4.428 7.185 8.399 9.801 7.901 1.404-.267 1.894-1.888 2.515-8.322.424-4.394 1.099-10.69 1.5-13.99l.729-6 4.477.191c2.559.11 4.817-.319 5.269-1 .572-.86 1.236-.635 2.388.809 1.106 1.387 1.739 1.617 2.064.75.258-.687 1.106-1.25 1.885-1.25.988 0 1.442 1.288 1.499 4.25l.081 4.25 1.364-3.11c.751-1.711 1.658-4.279 2.016-5.707.568-2.261.284-2.675-2.196-3.209-4.977-1.071-7.326-2.364-6.798-3.742.281-.731-1.792-3.782-4.606-6.78S139.601 145.975 133.214 138a16968 16968 0 0 0-16.842-21c-2.875-3.575-7.011-8.23-9.189-10.345-5.078-4.929-5.708-4.6-15.425 8.057-4.133 5.384-8.534 10.688-9.781 11.788s-8.006 8.75-15.022 17c-7.015 8.25-14.532 16.712-16.703 18.804-3.741 3.605-4.242 3.789-9.568 3.5l-5.621-.304 13.065-15c13.163-15.113 27.298-31.634 38.372-44.849 21.334-25.457 43.432-50.666 44.373-50.62.345.017 2.191 2.154 4.102 4.75 12.602 17.115 38.128 48.508 57.502 70.719 21.464 24.607 25.534 29.177 28.435 31.937 1.698 1.615 3.088 3.369 3.088 3.897 0 .604-9.674.731-26.12.342-27.106-.641-29.88-.331-29.88 3.338 0 1.069-1.125 5.295-2.5 9.391-2.875 8.563-3.115 11.839-1 13.595 1.145.95 1.514 3.643 1.558 11.372.031 5.571.37 11.891.753 14.045l.696 3.918 2.591-3.418c4.658-6.145 5.187-7.91 4.978-16.609-.142-5.905.147-8.308 1-8.308.885 0 1.031 2.031.555 7.75-.581 6.979-.497 7.56.842 5.837.817-1.053 3.096-5.778 5.064-10.5 5.068-12.167 6.377-13.553 14.185-15.034 2.763-.524 15.865-1.052 29.116-1.172 13.251-.121 24.592-.528 25.202-.905 1.613-.997-13.395-20.596-24.486-31.976-5.093-5.225-11.435-12.425-14.094-16-6.03-8.108-7.499-9.855-28.362-33.743-4.44-5.084-10.618-12.734-13.729-17s-7.154-9.339-8.986-11.272c-1.831-1.933-5.254-6.066-7.606-9.186-7.03-9.322-15.498-20.053-18.994-24.072l-3.283-3.774zm74.075 13.507c-5.913 2.161-12.762 9.092-13.647 13.811C179.905 83.98 188.384 94 202.348 94c8.194 0 13.037-2.469 18.411-9.385 1.717-2.21 2.241-4.206 2.241-8.538 0-14.94-13.166-24.437-26.914-19.414m-.715 6.831c-10.34 6.198-9.316 20.51 1.785 24.952 5.723 2.29 11.09 1.272 15.73-2.982 3.375-3.095 3.612-3.702 3.583-9.178-.038-6.929-2.81-11.695-8.086-13.899-4.794-2.003-8.324-1.703-13.012 1.107M52.058 131.569c-5.193 5.187-8.831 9.431-8.083 9.431s1.021.338.608.75-1.162.75-1.666.75-.92.335-.924.744c-.003.409-2.664 3.484-5.912 6.835s-6.057 6.391-6.243 6.756-.709.541-1.162.39c-.454-.151-.571.136-.261.637.624 1.011-1.796 3.423-2.615 2.605-.283-.283-1.142.283-1.907 1.259-1.295 1.649-1.252 1.669.607.291 1.975-1.464 1.977-1.455.116.727-1.036 1.215-2.343 1.925-2.904 1.578-.562-.347-.73-.16-.374.417.357.576-.695 2.108-2.336 3.404s-2.988 2.882-2.993 3.524-.571 1.393-1.259 1.671c-1.801.726 18.533.556 33.75-.283 11.992-.661 12.326-.729 4.309-.886-4.78-.093-8.969-.619-9.309-1.169s-2.054-1.007-3.809-1.015c-2.428-.012-2.832-.247-1.691-.985 1.333-.862 1.333-.984 0-1.1-.825-.072-1.95-.235-2.5-.363s-1.9-.329-3-.448c-1.824-.197-1.793-.299.355-1.159 1.386-.555 2.139-1.504 1.831-2.307-.558-1.454 1.973-4.873 12.009-16.22 3.452-3.904 6.072-7.303 5.822-7.553-.251-.25 1.827-3.356 4.617-6.903l5.073-6.447-6.325 7c-3.478 3.85-10.103 10.885-14.722 15.633-4.619 4.749-8.682 9.024-9.029 9.5S30.375 160.4 29 161.5c-2.701 2.161 5.294-6.888 13.253-15 4.15-4.229 20.486-24.639 19.555-24.431-.169.038-4.557 4.313-9.75 9.5m33.413 13.173c-9.884 10.858-17.859 19.951-17.721 20.207.137.255 15.736.484 34.665.508 30.433.038 34.284-.131 33.281-1.457-.624-.825-3.883-4.65-7.243-8.5-7.824-8.966-22.497-27.45-23.159-29.175-.279-.729-.811-1.325-1.18-1.325-.37 0-8.76 8.884-18.643 19.742M45 140.059c0 .582.45.781 1 .441s1-.816 1-1.059-.45-.441-1-.441-1 .477-1 1.059m21.958 10.663c-2.452 2.596-3.333 3.842-1.958 2.768 2.566-2.004 7-6.53 7-7.146 0-.805-.82-.093-5.042 4.378m8.914.028c-1.243 1.586-1.208 1.621.378.378.963-.755 1.75-1.543 1.75-1.75 0-.823-.821-.294-2.128 1.372m-8 6c-1.243 1.586-1.208 1.621.378.378.963-.755 1.75-1.543 1.75-1.75 0-.823-.821-.294-2.128 1.372M229.5 161c.995 1.1 2.035 2 2.31 2s-.315-.9-1.31-2-2.035-2-2.31-2 .315.9 1.31 2m2.313 9.683c.721.289 1.584.253 1.916-.079s-.258-.568-1.312-.525c-1.165.048-1.402.285-.604.604m-169 2c.721.289 1.584.253 1.916-.079s-.258-.568-1.312-.525c-1.165.048-1.402.285-.604.604m168 2c.721.289 1.584.253 1.916-.079s-.258-.568-1.312-.525c-1.165.048-1.402.285-.604.604m-199.509 2.064c5.943.177 15.393.176 21-.002 5.608-.178.746-.323-10.804-.322s-16.138.147-10.196.324m135.775 5.836c.048 1.165.285 1.402.604.605.289-.722.253-1.585-.079-1.917s-.568.258-.525 1.312m-2 8c.048 1.165.285 1.402.604.605.289-.722.253-1.585-.079-1.917s-.568.258-.525 1.312"/>
  <path fill="#1976D2" fill-opacity=".192" fill-rule="evenodd"
        d="M122.642 39.25c-4.13 4.538-9.901 11.246-12.825 14.907-2.925 3.662-9.328 11.087-14.231 16.5S83.646 84.55 79.948 89.5c-3.697 4.95-7.955 10.125-9.462 11.5-2.918 2.662-21.689 24.053-32.486 37.018-15.241 18.303-18.763 22.764-21.922 27.771-1.835 2.909-5.303 6.901-7.707 8.87-4.875 3.995-5.466 5.855-2.121 6.677 1.237.304 23.4.588 49.25.632s49.475.357 52.5.696c7.155.802 11.937 3.277 16.393 8.482 1.984 2.317 3.607 3.718 3.607 3.111 0-1.978-5.112-7.238-9.578-9.855-4.052-2.375-5.684-2.624-22.644-3.447-10.053-.487-34.69-.902-54.749-.921L4.558 180l6.11-6.25c3.361-3.437 7.349-8.275 8.863-10.75s5.979-8.1 9.922-12.5 8.717-10.046 10.608-12.546c5.292-6.996 19.549-23.462 28.511-32.928 4.44-4.689 10.222-11.594 12.849-15.345 2.628-3.75 9.577-12.075 15.442-18.5 5.866-6.424 12.233-13.695 14.151-16.157s5.517-6.511 7.999-9c2.483-2.488 6.318-6.726 8.522-9.417l4.009-4.893 4.201 5.393a716 716 0 0 0 8.7 10.893c2.474 3.025 5.945 7.525 7.713 10 1.769 2.475 5.751 7.425 8.849 11s7.402 8.975 9.563 12c3.814 5.338 18.955 23.345 28.167 33.5 2.495 2.75 7.472 8.825 11.061 13.5s10.912 13 16.274 18.5c9.644 9.891 27.228 32.206 26.415 33.52-.231.375-12.806.923-27.944 1.22-26.369.516-27.722.638-32.245 2.899-4.462 2.231-4.949 2.893-8.874 12.046-2.284 5.327-6.765 13.611-9.958 18.409-6.91 10.385-6.881 10.415-7.916-8.048-.579-10.324-1.063-13.201-2.382-14.165-1.253-.916-1.835-.928-2.396-.046-.492.773-.747.604-.757-.503-.023-2.588 1.099-4.88 2.09-4.267.492.304.895-.283.895-1.304 0-1.961 4.977-16.806 6.412-19.121.694-1.121 5.47-1.231 27.215-.627 14.505.403 26.373.41 26.373.015s-5.738-7.275-12.75-15.29a41030 41030 0 0 1-20.444-23.384c-13.976-16.007-36.221-43.124-47.708-58.157l-11.311-14.802-5.247 5.802c-5.288 5.85-28.554 32.985-47.04 54.864-5.5 6.51-17.2 20.11-26 30.223s-16.15 18.798-16.333 19.301c-.184.503 1.893.915 4.615.915 6.334 0 7.491-.931 20.877-16.803 5.89-6.983 14.147-16.522 18.35-21.197 4.202-4.675 9.697-11.2 12.211-14.5s5.965-7.319 7.669-8.931l3.098-2.93 2.655 2.43c1.46 1.337 10.543 12.331 20.185 24.431s20.257 24.849 23.589 28.332c3.332 3.482 6.064 7.079 6.071 7.992.009 1.143 1.339 1.942 4.263 2.561 4.934 1.044 5.184 2.165 2.25 10.115l-1.845 5-.077-5.25c-.075-5.042-1.488-6.951-2.737-3.696-.507 1.32-.954 1.218-2.969-.674-1.998-1.877-2.372-1.964-2.372-.554 0 1.957-3.577 2.307-4.341.424-.392-.967-.725-.938-1.471.128-.53.758-1.417 1.099-1.97.757-1.229-.76-1.912 1.869-2.694 10.365-1.822 19.808-1.875 19.891-9.348 14.823-3.65-2.476-4.238-2.672-2.678-.895 4.582 5.222 11.46 6.618 13.906 2.822.797-1.238 1.767-5.977 2.155-10.533.775-9.106 2.894-13.217 6.814-13.217 3.57 0 4.627 1.959 4.627 8.574 0 3.396.673 8.082 1.495 10.412s2.162 8.698 2.977 14.149c1.668 11.154 2.746 13.865 5.515 13.865 2.875 0 14.049-17.527 18.043-28.299 2.786-7.512 5.532-10.589 10.47-11.729 2.2-.509 11.425-.99 20.5-1.071s21.22-.428 26.99-.774c12.903-.771 13.302-1.48 5.81-10.331-2.931-3.463-6.401-7.871-7.712-9.796s-6.986-8.225-12.613-14c-10.057-10.323-24.876-29.507-30.641-39.668-2.712-4.78-5.025-7.149-15.774-16.156-2.181-1.828-7.088-7.903-10.902-13.5C158.124 59.554 134.377 31 131.507 31c-.746 0-4.735 3.712-8.865 8.25m74.106 15.127c-8.508 3.149-15.701 11.028-16.495 18.067-.775 6.882.444 10.93 4.774 15.85 8.515 9.673 23.31 10.443 33.21 1.728 5.785-5.092 7.1-8.382 6.585-16.475-.342-5.373-.93-7.116-3.462-10.26-6.852-8.507-16.38-11.957-24.612-8.91m-1.326 2.041c-4.894 2.132-10.592 7.713-12.671 12.413-6.461 14.604 9.442 29.861 26.249 25.184 7.342-2.043 14.928-11.17 14.972-18.015.047-7.164-5.516-16.162-12.097-19.565-3.459-1.788-12.363-1.797-16.453-.017m2.078 6.45c-5.007 2.315-7.472 5.046-8.403 9.309-1.141 5.223.357 9.934 4.31 13.557 3.082 2.825 4.275 3.265 8.828 3.262 5.806-.004 10.838-2.396 12.817-6.092 1.887-3.527 1.47-11.728-.748-14.699-4.696-6.289-10.652-8.181-16.804-5.337M130 71.406c0 .837-.71 1.233-1.75.978-.963-.236-2.906.369-4.318 1.344-5.405 3.73-13.932 15.17-13.932 18.69 0 2.42 2.506 6.916 5.721 10.264 1.528 1.592 8.179 8.857 14.779 16.146 21.517 23.76 34.621 36.381 38.325 36.912.921.132 5.5.994 10.175 1.915 11.236 2.215 23.73 2.387 25.021.345 1.553-2.457 1.172-3.499-3.021-8.263-2.2-2.499-4-4.876-4-5.283 0-1.06-8.414-10.807-16-18.533-8.75-8.913-21.698-24-25.71-29.956-1.797-2.669-3.835-5.216-4.529-5.659s-3.464-3.506-6.157-6.806c-4.991-6.116-12.499-13.416-13.854-13.47-.412-.017-.75.603-.75 1.376M197 75c0 .55.45 1 1 1s1-.45 1-1-.45-1-1-1-1 .45-1 1m-99.89 57.38c-3.514 3.916-11.556 12.653-17.871 19.415-6.315 6.763-11.315 12.452-11.11 12.644.204.191 15.704.516 34.444.721l34.072.373-7.572-8.865c-4.165-4.875-11.404-13.739-16.087-19.696s-8.732-11.03-9-11.272c-.267-.242-3.361 2.764-6.876 6.68m2.89 14.151c0 .808.45 1.469 1 1.469s1 .436 1 .969-.639.723-1.419.424c-1.754-.673-6.581 2.363-6.581 4.139 0 .716-.551 1.485-1.224 1.709-.674.225-.223.67 1.001.99 1.225.321 1.973.174 1.664-.326s.591-1.347 1.999-1.882c3.149-1.197 3.42-2.431.318-1.446-2.006.636-2.096.536-.857-.958 1.293-1.557 1.513-1.554 3.289.053 1.858 1.681 1.836 1.76-.893 3.275-2.768 1.537-2.725 1.556 4.104 1.852 8.287.359 10.354-.184 8.626-2.267-.66-.794-.921-1.895-.58-2.446.34-.551-.577-.381-2.039.377-2.6 1.349-5.854 1.067-4.93-.427.665-1.076-1.739-5.907-3.228-6.487-.687-.267-1.25.175-1.25.982"/>
  <path fill="#1976D2" fill-opacity=".494" fill-rule="evenodd"
        d="M135.373 36c7.103 9.538 13.77 17.97 14.625 18.499.524.324 2.548 2.932 4.497 5.795s6.062 7.906 9.14 11.206l5.597 6-4.366-5.991c-6.504-8.926-22.069-28.097-28.422-35.009-3.328-3.619-3.429-3.667-1.071-.5m-9.501.75c-1.243 1.586-1.208 1.621.378.378 1.666-1.307 2.195-2.128 1.372-2.128-.207 0-.995.788-1.75 1.75M120 43.5c-2.429 2.475-4.191 4.5-3.916 4.5s2.487-2.025 4.916-4.5 4.191-4.5 3.916-4.5-2.487 2.025-4.916 4.5m2.794 20.75c-7.699 8.589-24.6 28.324-35.794 41.795-9.259 11.141-20.413 24.183-35.457 41.455-18.095 20.776-16.908 18.742-10.463 17.938 6.517-.814 9.263-3.185 23.667-20.438 5.281-6.325 12.172-14.2 15.313-17.5s7.363-8.206 9.383-10.901c6.567-8.768 10.621-13.41 12.26-14.039 2.038-.782 4.596 1.568 14.087 12.94 4.132 4.95 7.894 9.15 8.361 9.333.467.184.849.916.849 1.628s.734 1.903 1.631 2.648c.897.744 4.214 4.737 7.372 8.872 3.157 4.136 9.391 11.569 13.853 16.519s7.926 9.516 7.699 10.147.792 1.381 2.266 1.668 2.829.107 3.012-.397c.384-1.057 5.167-1.268 5.167-.228 0 2.066-5.55 17.31-6.303 17.31-.489 0-.734-2.25-.544-5.001.201-2.896-.056-4.866-.611-4.681-1.44.482-.594 18.286 1.095 23.053.805 2.271 1.885 7.432 2.4 11.469 1.112 8.71 2.91 15.16 4.228 15.16.522 0 .682-.696.355-1.547-.326-.851-.885-7.263-1.242-14.25-.647-12.656-1.494-15.756-4.038-14.78-2.02.775-1.669-3.354.675-7.952 1.108-2.173 1.797-4.519 1.531-5.211s-.028-1.26.529-1.26.921-.562.808-1.25.318-2.517.957-4.065c.638-1.548 1.16-3.408 1.16-4.133 0-2.343 4.057-2.683 30.413-2.545l25.912.135-9.912-10.908c-25.517-28.078-66.362-77.227-78.919-94.963-1.647-2.325-3.289-4.238-3.65-4.25s-3.983 3.691-8.05 8.229m72.419-.111C183.865 71.405 189.015 89 202.49 89c4.744 0 10.821-3.191 12.313-6.467 1.806-3.964 1.45-10.605-.763-14.234-3.811-6.252-12.547-8.182-18.827-4.16m-64.62 2.967C129.167 68.227 128 68.832 128 68.45s-.761-.077-1.692.678c-1.458 1.182-1.577 1.165-.859-.128.458-.825-1.937 1.2-5.324 4.5C113.78 79.684 106 91.632 106 95.193c0 2.259 2.462 5.461 11.101 14.436 3.244 3.371 5.907 6.521 5.917 7 .021 1.086 8.745 10.448 11.569 12.417 1.147.799 3.7 3.704 5.674 6.454 1.973 2.75 6.549 7.627 10.168 10.837 3.62 3.21 6.326 6.251 6.013 6.757s.247 1.219 1.245 1.583c.997.365 2.888 1.488 4.201 2.496 5.497 4.218 13.93 5.716 32.035 5.692 12.981-.017 17.077-.322 17.077-1.272 0-.688-1.463-3.394-3.25-6.014s-4.15-6.264-5.25-8.097c-2.77-4.617-14.717-18.466-15.509-17.977-.758.469-4.749-4.297-14.865-17.755-4.031-5.362-7.874-9.75-8.54-9.75-1.29 0-3.378-2.606-10.412-12.994-4.916-7.259-7.08-9.792-5.133-6.006 1.202 2.336 1.17 2.404-.482 1.04-.973-.803-3.597-4.178-5.832-7.5s-5.07-7.263-6.302-8.757l-2.24-2.716zM97.405 69.25 95.5 71.5l2.25-1.905c1.237-1.048 2.25-2.06 2.25-2.25 0-.8-.805-.209-2.595 1.905M197 74.5c0 .917.484 1.505 1.075 1.308s1.075-.785 1.075-1.308-.484-1.111-1.075-1.308S197 73.583 197 74.5m27.232 1.5c0 1.925.206 2.713.457 1.75.252-.963.252-2.537 0-3.5-.251-.963-.457-.175-.457 1.75m-35.177 26.723c2.397 2.627 5.205 5.392 6.238 6.144 1.8 1.31 1.816 1.246.383-1.5-1.747-3.345-6.351-7.782-9.078-8.747-1.184-.42-.256 1.13 2.457 4.103m-90.042-2.752c-1.179.745-1.037.907.68.777 1.193-.09 1.948-.52 1.679-.956-.599-.969-.537-.973-2.359.179M200 115.378c0 .207.787.995 1.75 1.75 1.586 1.243 1.621 1.208.378-.378-1.307-1.666-2.128-2.195-2.128-1.372m3 4c0 .207.787.995 1.75 1.75 1.586 1.243 1.621 1.208.378-.378-1.307-1.666-2.128-2.195-2.128-1.372M99.335 130.332c-2.109 2.382-10.056 11.156-17.659 19.499l-13.823 15.167 33.124-.027c18.218-.014 33.551.238 34.074.56 2.327 1.439.477-1.263-5.395-7.881-8.535-9.618-24.656-29.762-24.656-30.809 0-1.866-2.029-.616-5.665 3.491m-56.93 2.918L40.5 135.5l2.25-1.905c2.114-1.79 2.705-2.595 1.905-2.595-.19 0-1.202 1.012-2.25 2.25m63.006 1.606c.291.47-.537.652-1.838.403-1.92-.367-3.143.558-6.477 4.894-2.26 2.941-6.583 8.248-9.606 11.793-3.349 3.928-5.137 6.807-4.576 7.368.506.506 9.733 1.027 20.504 1.157 16.375.198 19.4.015 18.461-1.117-.836-1.007-.825-1.354.04-1.354.64 0-.672-2.588-2.916-5.75s-5.912-8.562-8.153-12c-2.24-3.437-4.5-6.25-5.021-6.25s-.709.385-.418.856m-70.974 8.394L31.5 146.5l3.25-2.937c3.029-2.738 3.71-3.563 2.937-3.563-.172 0-1.635 1.463-3.25 3.25m24.435 1.5c-1.243 1.586-1.208 1.621.378.378.962-.755 1.75-1.543 1.75-1.75 0-.823-.821-.294-2.128 1.372m-15 18c-1.243 1.586-1.208 1.621.378.378 1.666-1.307 2.195-2.128 1.372-2.128-.207 0-.995.787-1.75 1.75M168 165c0 .55.45 1 1 1s1-.45 1-1-.45-1-1-1-1 .45-1 1m-15.293 8.989c.286 1.094.9 1.754 1.363 1.468.984-.609.092-3.457-1.083-3.457-.44 0-.566.895-.28 1.989m-9.657-.489c-.049.55-.736 7.057-1.526 14.461-.79 7.403-1.33 13.566-1.201 13.695.129.13.858-.15 1.62-.621.87-.537 1.876-4.664 2.707-11.101.816-6.329 1.925-10.912 2.901-11.99 1.064-1.176 1.227-1.963.498-2.414-.595-.367-.823-1.087-.506-1.599s.147-.931-.377-.931-1.273.787-1.666 1.75c-.656 1.606-.782 1.586-1.537-.25-.452-1.1-.863-1.55-.913-1m-123.322 7.222c1.775.221 4.925.224 7 .008 2.074-.217.622-.397-3.228-.402-3.85-.004-5.548.173-3.772.394m44.536-.004c1.52.229 3.77.223 5-.014s-.014-.425-2.764-.418-3.756.202-2.236.432"/>
</svg>
